DataType=double
version=3
OpenSimVersion=4.5-2023-11-26-efcdfd3eb
endheader
time	EMG01_right_gast_med	EMG02_right_glut_max	EMG03_left_gast_med	EMG04_left_glut_max	EMG05_right_glut_med	EMG06_right_bic_fem	EMG07_right_rect_fem	EMG08_right_vast_lat	EMG09_right_vast_med	EMG10_right_tens_fasc_lat	EMG11_left_glut_med	EMG12_left_bic_fem	EMG13_left_rect_fem	EMG14_left_vast_lat	EMG15_left_vast_med	EMG16_left_tens_fasc_lat
1.68	0.2566641944351827	0.06655003534680437	-0.01752408263240588	0.06276498677480168	0.02554765176427771	0.09739104303889408	0.04214769423369248	0.02431384296288569	0.03504482367709025	0.04793774441327241	0.03850185365603841	0.02193670932772741	0.01692904695337025	0.01893220201557454	0.0204286674500339	0.1258206949765351
1.69	0.2579796741936357	0.06271114977914306	-0.01628612765976176	0.0620881883388106	0.02371386092307148	0.09348315150909683	0.04212568457883323	0.02344339802512233	0.03332022797384553	0.04526989529525673	0.0410203409503109	0.02365659020925266	0.01823265548129712	0.01964732124467007	0.0189812483884756	0.125244851952317
1.7	0.2588973477072631	0.05876520424009336	-0.01461616936268351	0.06119232880587668	0.02216579196638157	0.08965951073680085	0.04234064364764786	0.02260924015413539	0.03159645005148231	0.04293254429223729	0.04389363584251177	0.02550856511826712	0.01985396049495785	0.02059832145133834	0.0176480978045301	0.1241095148875578
1.71	0.2594300682462022	0.05475317938277402	-0.01256852496773477	0.06009580480316806	0.02092473515872368	0.08592607402659114	0.04279367884908839	0.02181250277472977	0.02988656618606624	0.04098957672680826	0.04713371762150959	0.02748551401215171	0.02179930608136714	0.021796725322606	0.01644855893571428	0.1224469148897687
1.72	0.2595908303399331	0.0507165155977999	-0.01019560207426006	0.05881957469528975	0.02000984301517115	0.0822888633556902	0.04348211924102474	0.02105387113130796	0.02820329855589154	0.03950086365492907	0.05075079057180945	0.02957918345669054	0.02407138452632764	0.02325120257861655	0.01539993970642112	0.12029644903126
1.73	0.2593919352958149	0.04669668654402437	-0.007547461193455723	0.0573867678938054	0.01943797135795687	0.07875401637866716	0.04439952678125724	0.0203336921458554	0.02655894185167399	0.03852129063918181	0.05475308768890182	0.03178024788384364	0.0266689935120175	0.02496730644233002	0.01451740186874947	0.1177038160594182
1.74	0.2588442360258957	0.04273480004454426	-0.004671479295015647	0.05582224922233085	0.01922351372321935	0.075327775522798	0.04553576532014763	0.01965207569060739	0.0249652913014648	0.03809983542392133	0.0591466672642483	0.03407837498306771	0.02958683315138344	0.02694724088423906	0.01381387390720121	0.1147200870734669
1.75	0.2579565008406205	0.03887122844994381	-0.001612109306064153	0.05415215031637552	0.0193782302076586	0.07201642138812278	0.04687712796746352	0.01900898024927297	0.02343357120756388	0.03827870944967786	0.06393520060855738	0.03646229430724827	0.03281535037970655	0.02918966454750373	0.01329998700440355	0.1114007349204326
1.76	0.256734932897928	0.03514526976441877	0.001589271441674981	0.05240338181321273	0.01991107283524577	0.06882615939076243	0.04840652262859971	0.01840427785983697	0.02197436402819976	0.03909257820420032	0.06911975052327501	0.03891986760830559	0.03634063840189422	0.03168953721136997	0.01298403331247196	0.1078046433528863
1.77	0.2551828743247237	0.03159484013156524	0.004894432330536268	0.05060314067959276	0.02082800986702465	0.06576297281595841	0.05010371493298582	0.01783779652282924	0.02059754082470749	0.04056787509248636	0.07469854254740081	0.04143815926028396	0.04014439849421397	0.03443801406361944	0.01287194589608002	0.1039931141712012
1.78	0.2533007129302331	0.02825619741571193	0.00826828967335304	0.0487784264414621	0.02213185145547001	0.0628324566434051	0.05194562717155334	0.0173093415776101	0.01931219424334903	0.04272222272838869	0.0806667334312485	0.04400350581916583	0.04420397047713013	0.03742239218254776	0.01296729984920264	0.100028888456657
1.79	0.2510859968284549	0.02516369454089576	0.01167884616661921	0.04695557849361363	0.02382207908497668	0.06003964544312488	0.05390669093837277	0.01681869961318534	0.01812657502775181	0.04556397434814972	0.08701618266127106	0.04660158501432	0.04849243674029018	0.04062611266819621	0.01327133408742971	0.09597519650743871
1.8	0.2485337492961618	0.02234956019295126	0.01509708005597818	0.04515984441494507	0.02589468164678585	0.05738884649300442	0.0559592499355519	0.01636562912782214	0.01704803260309825	0.04909188645242953	0.09373523283964762	0.04921748553180862	0.05297880296608293	0.04402882094196359	0.01378299322214052	0.09189484947131225
1.81	0.2456369640007118	0.01984370362459719	0.01849679470796218	0.04341498679542882	0.02834200192221879	0.05488348705264018	0.05807400794053182	0.01594984202057629	0.01608295986346795	0.05329493180563403	0.1008085035777963	0.0518357793922419	0.05762825680286002	0.04760648700954075	0.01449898883810967	0.08784938359048286
1.82	0.2423872513968302	0.01767353961003114	0.0218544394753254	0.04174293403975995	0.03115259866122966	0.05252598297254089	0.06022051529145221	0.01557097959898636	0.01523674207133605	0.05815225967189665	0.1082167018797368	0.05444059869452854	0.06240250389916833	0.05133158715595292	0.01541387940259257	0.08389826610261122
1.83	0.2387756020491696	0.01586382906259603	0.02514891283610424	0.04016347930830476	0.03431113098179342	0.05031763444120069	0.06236768555002879	0.01522858624236383	0.01451370968240557	0.06363330787740659	0.115936450536556	0.05701571831543224	0.06726017922188668	0.05517334861572453	0.01652016783945032	0.08009817095143877
1.84	0.2347932305357459	0.01443653058421852	0.02836135859217971	0.03869403106195132	0.03779827292243932	0.04825855329853913	0.06448433252473977	0.0149220831997086	0.01391709484333297	0.06969806919697709	0.1239401356680639	0.05954464585361309	0.07215733047415418	0.05909805878040855	0.01780841549057249	0.07650233234214925
1.85	0.2304324615374305	0.01341065844671578	0.03147496534326684	0.03734941805368943	0.04159066633650803	0.04634762477274391	0.06653971683099974	0.01465074435077186	0.01344899129132254	0.07629751274176713	0.1321957758646629	0.06201071954212231	0.07704796918322715	0.06306943986168505	0.01926737080829904	0.07315998392398333
